<svg width="19" height="13" viewBox="0 0 19 13" fill="none" xmlns="http://www.w3.org/2000/svg">
<path d="M9.49996 4.125C10.1298 4.125 10.7339 4.37522 11.1793 4.82062C11.6247 5.26602 11.875 5.87011 11.875 6.5C11.875 7.12989 11.6247 7.73398 11.1793 8.17938C10.7339 8.62478 10.1298 8.875 9.49996 8.875C8.87007 8.875 8.26598 8.62478 7.82058 8.17938C7.37518 7.73398 7.12496 7.12989 7.12496 6.5C7.12496 5.87011 7.37518 5.26602 7.82058 4.82062C8.26598 4.37522 8.87007 4.125 9.49996 4.125ZM9.49996 0.5625C13.4583 0.5625 16.8387 3.02458 18.2083 6.5C16.8387 9.97542 13.4583 12.4375 9.49996 12.4375C5.54163 12.4375 2.16121 9.97542 0.791626 6.5C2.16121 3.02458 5.54163 0.5625 9.49996 0.5625ZM2.51746 6.5C3.15733 7.80649 4.15091 8.90726 5.38526 9.67716C6.6196 10.4471 8.04519 10.8552 9.49996 10.8552C10.9547 10.8552 12.3803 10.4471 13.6147 9.67716C14.849 8.90726 15.8426 7.80649 16.4825 6.5C15.8426 5.19351 14.849 4.09274 13.6147 3.32284C12.3803 2.55294 10.9547 2.14479 9.49996 2.14479C8.04519 2.14479 6.6196 2.55294 5.38526 3.32284C4.15091 4.09274 3.15733 5.19351 2.51746 6.5Z" fill="#FEFEFE"/>
</svg>
